<?xml version="1.0" encoding="UTF-8" standalone="no"?>
<svg
   xmlns:dc="http://purl.org/dc/elements/1.1/"
   xmlns:cc="http://creativecommons.org/ns#"
   xmlns:rdf="http://www.w3.org/1999/02/22-rdf-syntax-ns#"
   xmlns:svg="http://www.w3.org/2000/svg"
   xmlns="http://www.w3.org/2000/svg"
   xmlns:sodipodi="http://sodipodi.sourceforge.net/DTD/sodipodi-0.dtd"
   xmlns:inkscape="http://www.inkscape.org/namespaces/inkscape"
   inkscape:version="1.0 (4035a4fb49, 2020-05-01)"
   sodipodi:docname="film-solid.svg"
   id="svg4"
   version="1.1"
   viewBox="0 0 512 512">
  <metadata
     id="metadata10">
    <rdf:RDF>
      <cc:Work
         rdf:about="">
        <dc:format>image/svg+xml</dc:format>
        <dc:type
           rdf:resource="http://purl.org/dc/dcmitype/StillImage" />
      </cc:Work>
    </rdf:RDF>
  </metadata>
  <defs
     id="defs8" />
  <sodipodi:namedview
     inkscape:current-layer="svg4"
     inkscape:window-maximized="1"
     inkscape:window-y="-8"
     inkscape:window-x="-8"
     inkscape:cy="232.40553"
     inkscape:cx="256"
     inkscape:zoom="1.6953125"
     showgrid="false"
     id="namedview6"
     inkscape:window-height="1017"
     inkscape:window-width="1920"
     inkscape:pageshadow="2"
     inkscape:pageopacity="0"
     guidetolerance="10"
     gridtolerance="10"
     objecttolerance="10"
     borderopacity="1"
     bordercolor="#666666"
     pagecolor="#ffffff" />
  <!--! Font Awesome Pro 6.0.0 by @fontawesome - https://fontawesome.com License - https://fontawesome.com/license (Commercial License) Copyright 2022 Fonticons, Inc. -->
  <path
     style="fill:#2e2e2f;fill-opacity:1"
     id="path2"
     d="M463.1 32h-416C21.49 32-.0001 53.49-.0001 80v352c0 26.51 21.49 48 47.1 48h416c26.51 0 48-21.49 48-48v-352C511.1 53.49 490.5 32 463.1 32zM111.1 408c0 4.418-3.582 8-8 8H55.1c-4.418 0-8-3.582-8-8v-48c0-4.418 3.582-8 8-8h47.1c4.418 0 8 3.582 8 8L111.1 408zM111.1 280c0 4.418-3.582 8-8 8H55.1c-4.418 0-8-3.582-8-8v-48c0-4.418 3.582-8 8-8h47.1c4.418 0 8 3.582 8 8V280zM111.1 152c0 4.418-3.582 8-8 8H55.1c-4.418 0-8-3.582-8-8v-48c0-4.418 3.582-8 8-8h47.1c4.418 0 8 3.582 8 8L111.1 152zM351.1 400c0 8.836-7.164 16-16 16H175.1c-8.836 0-16-7.164-16-16v-96c0-8.838 7.164-16 16-16h160c8.836 0 16 7.162 16 16V400zM351.1 208c0 8.836-7.164 16-16 16H175.1c-8.836 0-16-7.164-16-16v-96c0-8.838 7.164-16 16-16h160c8.836 0 16 7.162 16 16V208zM463.1 408c0 4.418-3.582 8-8 8h-47.1c-4.418 0-7.1-3.582-7.1-8l0-48c0-4.418 3.582-8 8-8h47.1c4.418 0 8 3.582 8 8V408zM463.1 280c0 4.418-3.582 8-8 8h-47.1c-4.418 0-8-3.582-8-8v-48c0-4.418 3.582-8 8-8h47.1c4.418 0 8 3.582 8 8V280zM463.1 152c0 4.418-3.582 8-8 8h-47.1c-4.418 0-8-3.582-8-8l0-48c0-4.418 3.582-8 7.1-8h47.1c4.418 0 8 3.582 8 8V152z" />
</svg>
